<svg xmlns="http://www.w3.org/2000/svg" xmlns:xlink="http://www.w3.org/1999/xlink" width="500" zoomAndPan="magnify" viewBox="513 399 474 439" height="500" preserveAspectRatio="xMidYMid meet" version="1.0"><defs><g/><clipPath id="a211c317c9"><path d="M 721 399.285156 L 986.898438 399.285156 L 986.898438 838.785156 L 721 838.785156 Z M 721 399.285156 " clip-rule="nonzero"/></clipPath><clipPath id="390f2b988d"><path d="M 513 472 L 861 472 L 861 838.785156 L 513 838.785156 Z M 513 472 " clip-rule="nonzero"/></clipPath><clipPath id="8716b46bf9"><rect x="0" width="305" y="0" height="195"/></clipPath></defs><g clip-path="url(#a211c317c9)"><path fill="#3a7d16" d="M 758.367188 761.652344 C 761.046875 757.5 764.125 752.007812 765.730469 749.332031 C 773.230469 736.742188 780.460938 724.15625 787.695312 711.433594 C 808.71875 674.609375 829.339844 637.648438 850.097656 600.824219 C 869.113281 566.941406 888.261719 532.929688 907.542969 499.183594 C 918.660156 479.632812 930.578125 457.671875 943.164062 439.191406 L 934.191406 436.511719 L 978.117188 399.285156 L 986.953125 451.914062 L 976.109375 448.699219 L 760.242188 838.515625 L 756.492188 832.625 C 745.378906 815.214844 733.058594 797.804688 721.140625 780.53125 L 743.636719 739.957031 C 748.589844 747.1875 753.546875 754.417969 758.367188 761.652344 Z M 758.367188 761.652344 " fill-opacity="1" fill-rule="evenodd"/></g><path fill="#3a7d16" d="M 633.160156 675.277344 C 646.953125 651.308594 660.746094 627.335938 674.941406 603.5 C 684.3125 587.566406 694.089844 570.691406 704.402344 555.292969 L 698.777344 553.683594 L 742.699219 516.457031 L 751.539062 569.085938 L 737.34375 564.933594 L 655.925781 708.621094 C 648.292969 697.640625 640.660156 686.390625 655.925781 708.621094 C 648.292969 697.640625 640.660156 686.390625 633.160156 675.277344 Z M 633.160156 675.277344 " fill-opacity="1" fill-rule="evenodd"/><g clip-path="url(#390f2b988d)"><path fill="#3a7d16" d="M 669.316406 761.785156 C 671.457031 758.570312 673.734375 754.554688 674.804688 752.679688 C 680.832031 742.769531 686.589844 732.726562 692.347656 722.816406 C 708.953125 694.023438 725.425781 664.964844 741.894531 635.90625 C 756.492188 610.332031 770.953125 584.621094 785.820312 559.175781 C 794.792969 543.640625 804.164062 526.902344 814.207031 512.039062 L 807.648438 510.164062 L 851.570312 472.9375 L 860.40625 525.5625 L 847.285156 521.679688 L 671.191406 838.515625 L 667.441406 832.625 C 657.128906 816.421875 645.613281 800.21875 634.765625 784.28125 C 614.144531 754.152344 593.523438 724.15625 572.898438 694.160156 C 552.945312 664.964844 532.992188 635.90625 513.039062 606.847656 L 562.722656 606.847656 C 598.609375 658.136719 634.632812 709.558594 669.316406 761.785156 Z M 669.316406 761.785156 " fill-opacity="1" fill-rule="evenodd"/></g></svg>
